<?xml version="1.0" encoding="UTF-8" standalone="no"?>
<!-- Generator: Adobe Illustrator 19.1.0, SVG Export Plug-In . SVG Version: 6.00 Build 0)  -->

<svg
   xmlns:dc="http://purl.org/dc/elements/1.1/"
   xmlns:cc="http://creativecommons.org/ns#"
   xmlns:rdf="http://www.w3.org/1999/02/22-rdf-syntax-ns#"
   xmlns:svg="http://www.w3.org/2000/svg"
   xmlns="http://www.w3.org/2000/svg"
   xmlns:xlink="http://www.w3.org/1999/xlink"
   xmlns:sodipodi="http://sodipodi.sourceforge.net/DTD/sodipodi-0.dtd"
   xmlns:inkscape="http://www.inkscape.org/namespaces/inkscape"
   version="1.1"
   id="Layer_1"
   x="0px"
   y="0px"
   viewBox="0 0 34 34"
   style="enable-background:new 0 0 34 34;"
   xml:space="preserve"
   sodipodi:docname="icon-towing-blue-red.svg"
   inkscape:version="0.92.4 (5da689c313, 2019-01-14)"><metadata
   id="metadata13"><rdf:RDF><cc:Work
       rdf:about=""><dc:format>image/svg+xml</dc:format><dc:type
         rdf:resource="http://purl.org/dc/dcmitype/StillImage" /><dc:title /></cc:Work></rdf:RDF></metadata><defs
   id="defs11"><linearGradient
   inkscape:collect="always"
   id="linearGradient4618"><stop
     style="stop-color:#127cc1;stop-opacity:1;"
     offset="0"
     id="stop4614" /><stop
     style="stop-color:#127cc1;stop-opacity:0;"
     offset="1"
     id="stop4616" /></linearGradient><linearGradient
   inkscape:collect="always"
   id="linearGradient830"><stop
     style="stop-color:#127cc1;stop-opacity:1;"
     offset="0"
     id="stop826" /><stop
     style="stop-color:#127cc1;stop-opacity:0;"
     offset="1"
     id="stop828" /></linearGradient><linearGradient
   inkscape:collect="always"
   xlink:href="#linearGradient830"
   id="linearGradient832"
   x1="-0.60075992"
   y1="17.029198"
   x2="34.4"
   y2="17.029198"
   gradientUnits="userSpaceOnUse" /><linearGradient
   inkscape:collect="always"
   xlink:href="#linearGradient4618"
   id="linearGradient4620"
   x1="-0.60075992"
   y1="17.029198"
   x2="34.4"
   y2="17.029198"
   gradientUnits="userSpaceOnUse" /><linearGradient
   inkscape:collect="always"
   xlink:href="#linearGradient830"
   id="linearGradient4648"
   gradientUnits="userSpaceOnUse"
   x1="-0.60075992"
   y1="17.029198"
   x2="34.4"
   y2="17.029198" />
</defs><sodipodi:namedview
   pagecolor="#ffffff"
   bordercolor="#666666"
   borderopacity="1"
   objecttolerance="10"
   gridtolerance="10"
   guidetolerance="10"
   inkscape:pageopacity="0"
   inkscape:pageshadow="2"
   inkscape:window-width="1366"
   inkscape:window-height="706"
   id="namedview9"
   showgrid="false"
   inkscape:zoom="6.9411765"
   inkscape:cx="-4.7163107"
   inkscape:cy="12.734739"
   inkscape:window-x="-8"
   inkscape:window-y="-8"
   inkscape:window-maximized="1"
   inkscape:current-layer="Layer_1" />
<style
   type="text/css"
   id="style2">
	.st0{fill:#333333;}
</style>

<path
   style="opacity:1;fill:#127cc1;fill-opacity:0;fill-rule:evenodd;stroke:none;stroke-width:1.74242628;stroke-miterlimit:4;stroke-dasharray:none;stroke-opacity:1"
   d="M 15.808605,22.655538 7.2750468,22.617215 7.1877691,22.222171 C 6.9474129,21.134246 6.6260477,20.42201 6.1120555,19.838083 3.9987725,17.437269 0.61363585,17.261918 -1.5339767,19.44202 c -0.8158051,0.828146 -1.4247067,2.034538 -1.4247067,2.822713 0,0.324417 -0.055458,0.354765 -0.648305,0.354765 -0.9898832,0 -1.2245763,-0.315729 -1.2245763,-1.647401 0,-1.315517 0.1496454,-1.732098 0.8348291,-2.323989 l 0.533815,-0.461132 0.072034,-3.078231 C -3.2862332,10.636573 -3.2796856,10.6284 0.28701067,10.517803 2.5004813,10.449168 2.6373111,10.427728 3.1874001,10.063348 3.5485213,9.8241401 4.0999235,9.1772523 4.6597986,8.3359757 5.1520891,7.596253 5.6976909,6.9116357 5.872247,6.8146041 6.0796781,6.699298 6.9008009,6.6364144 8.2425878,6.6330778 l 2.0529662,-0.00511 V 5.9127026 c 0,-0.8324408 0.205939,-1.0135434 1.152542,-1.0135434 0.946604,0 1.152543,0.1811026 1.152543,1.0135434 v 0.7152701 h 0.636521 c 1.504253,0 1.524496,0.066753 1.524496,5.0270493 0,4.00415 0.0023,4.034481 0.320192,4.257155 0.176104,0.123348 0.435426,0.22427 0.576271,0.22427 0.240723,0 0.256079,-0.315736 0.256079,-5.265023 V 5.6064011 l 0.353622,-0.353621 c 0.495675,-0.4956762 1.137089,-0.4698189 1.674409,0.0675 l 0.421122,0.4211213 v 4.1220832 c 0,3.8831314 0.01461,4.1139604 0.252118,3.9819534 0.404809,-0.224997 4.742832,-3.9700979 6.152444,-5.3115267 2.907533,-2.7668954 8.374491,-7.4292718 9.10889,-7.76831913 0.694627,-0.32068661 0.781421,-0.33004561 1.248997,-0.13468008 0.898853,0.37556481 1.056187,1.20631941 0.453652,2.39536541 -0.350534,0.6917447 -0.360169,0.7925452 -0.360169,3.767705 0,2.9648419 0.0097,3.0672603 0.321651,3.3993275 0.312439,0.332575 0.314502,0.354841 0.07203,0.777316 -0.151538,0.26404 -0.249617,0.738002 -0.249617,1.206253 0,0.969504 -0.1722,1.427809 -0.65544,1.74444 -0.360411,0.23615 -0.404312,0.236088 -0.844936,-0.0012 -0.481578,-0.25934 -0.948777,-0.899263 -0.948777,-1.299533 0,-0.312731 0.102359,-0.2906 0.602545,0.130279 0.23542,0.198093 0.518027,0.36017 0.628016,0.36017 0.481807,0 0.682615,-1.400917 0.27757,-1.936434 -0.271076,-0.358394 -0.269334,-0.717593 0.0046,-0.944922 0.178125,-0.147831 0.216102,-0.6572878 0.216102,-2.898997 0,-1.4958062 -0.04862,-2.7159506 -0.108051,-2.7114318 -0.117859,0.00896 -7.527543,11.1029598 -7.527543,11.2704608 0,0.05647 2.495975,0.10268 5.546611,0.10268 h 5.54661 v 2.928277 2.928276 l -0.364825,0.342734 c -0.285108,0.267847 -0.56507,0.355485 -1.281281,0.401089 l -0.916458,0.05836 -0.162734,-0.758797 c -0.358886,-1.673426 -1.614385,-3.164978 -3.152434,-3.745141 -1.211018,-0.456803 -2.785448,-0.353825 -4.081181,0.266938 -1.484041,0.710979 -2.348881,1.828498 -2.724926,3.521064 -0.178376,0.802865 -0.197766,0.827317 -0.629341,0.793537 -0.244912,-0.01917 -4.285396,-0.0521 -8.978854,-0.07317 z m -2.985317,-12.20322 c 0.295143,-0.295142 0.353622,-0.493499 0.353622,-1.1994633 0,-1.3014579 -0.203146,-1.4298563 -2.460507,-1.5551694 C 9.7196933,7.6423548 8.5203285,7.6432511 8.0511492,7.6996764 7.2323036,7.7981549 7.1619895,7.8406116 6.2976726,8.7584506 5.3445061,9.7706411 5.1439359,10.355944 5.6493675,10.650331 c 0.150581,0.0877 1.5747462,0.14861 3.5362096,0.151226 l 3.2840909,0.0044 z"
   id="path4568"
   inkscape:connector-curvature="0" /><path
   style="opacity:1;fill:#127cc1;fill-opacity:0;fill-rule:evenodd;stroke:none;stroke-width:1.74242628;stroke-miterlimit:4;stroke-dasharray:none;stroke-opacity:1"
   d="M 15.808605,22.655538 7.2750468,22.617215 7.1877691,22.222171 C 6.9474129,21.134246 6.6260477,20.42201 6.1120555,19.838083 3.9987725,17.437269 0.61363585,17.261918 -1.5339767,19.44202 c -0.8158051,0.828146 -1.4247067,2.034538 -1.4247067,2.822713 0,0.324417 -0.055458,0.354765 -0.648305,0.354765 -0.9898832,0 -1.2245763,-0.315729 -1.2245763,-1.647401 0,-1.315517 0.1496454,-1.732098 0.8348291,-2.323989 l 0.533815,-0.461132 0.072034,-3.078231 C -3.2862332,10.636573 -3.2796856,10.6284 0.28701067,10.517803 2.5004813,10.449168 2.6373111,10.427728 3.1874001,10.063348 3.5485213,9.8241401 4.0999235,9.1772523 4.6597986,8.3359757 5.1520891,7.596253 5.6976909,6.9116357 5.872247,6.8146041 6.0796781,6.699298 6.9008009,6.6364144 8.2425878,6.6330778 l 2.0529662,-0.00511 V 5.9127026 c 0,-0.8324408 0.205939,-1.0135434 1.152542,-1.0135434 0.946604,0 1.152543,0.1811026 1.152543,1.0135434 v 0.7152701 h 0.636521 c 1.504253,0 1.524496,0.066753 1.524496,5.0270493 0,4.00415 0.0023,4.034481 0.320192,4.257155 0.176104,0.123348 0.435426,0.22427 0.576271,0.22427 0.240723,0 0.256079,-0.315736 0.256079,-5.265023 V 5.6064011 l 0.353622,-0.353621 c 0.495675,-0.4956762 1.137089,-0.4698189 1.674409,0.0675 l 0.421122,0.4211213 v 4.1220832 c 0,3.8831314 0.01461,4.1139604 0.252118,3.9819534 0.404809,-0.224997 4.742832,-3.9700979 6.152444,-5.3115267 2.907533,-2.7668954 8.374491,-7.4292718 9.10889,-7.76831913 0.694627,-0.32068661 0.781421,-0.33004561 1.248997,-0.13468008 0.898853,0.37556481 1.056187,1.20631941 0.453652,2.39536541 -0.350534,0.6917447 -0.360169,0.7925452 -0.360169,3.767705 0,2.9648419 0.0097,3.0672603 0.321651,3.3993275 0.312439,0.332575 0.314502,0.354841 0.07203,0.777316 -0.151538,0.26404 -0.249617,0.738002 -0.249617,1.206253 0,0.969504 -0.1722,1.427809 -0.65544,1.74444 -0.360411,0.23615 -0.404312,0.236088 -0.844936,-0.0012 -0.481578,-0.25934 -0.948777,-0.899263 -0.948777,-1.299533 0,-0.312731 0.102359,-0.2906 0.602545,0.130279 0.23542,0.198093 0.518027,0.36017 0.628016,0.36017 0.481807,0 0.682615,-1.400917 0.27757,-1.936434 -0.271076,-0.358394 -0.269334,-0.717593 0.0046,-0.944922 0.178125,-0.147831 0.216102,-0.6572878 0.216102,-2.898997 0,-1.4958062 -0.04862,-2.7159506 -0.108051,-2.7114318 -0.117859,0.00896 -7.527543,11.1029598 -7.527543,11.2704608 0,0.05647 2.495975,0.10268 5.546611,0.10268 h 5.54661 v 2.928277 2.928276 l -0.364825,0.342734 c -0.285108,0.267847 -0.56507,0.355485 -1.281281,0.401089 l -0.916458,0.05836 -0.162734,-0.758797 c -0.358886,-1.673426 -1.614385,-3.164978 -3.152434,-3.745141 -1.211018,-0.456803 -2.785448,-0.353825 -4.081181,0.266938 -1.484041,0.710979 -2.348881,1.828498 -2.724926,3.521064 -0.178376,0.802865 -0.197766,0.827317 -0.629341,0.793537 -0.244912,-0.01917 -4.285396,-0.0521 -8.978854,-0.07317 z m -2.985317,-12.20322 c 0.295143,-0.295142 0.353622,-0.493499 0.353622,-1.1994633 0,-1.3014579 -0.203146,-1.4298563 -2.460507,-1.5551694 C 9.7196933,7.6423548 8.5203285,7.6432511 8.0511492,7.6996764 7.2323036,7.7981549 7.1619895,7.8406116 6.2976726,8.7584506 5.3445061,9.7706411 5.1439359,10.355944 5.6493675,10.650331 c 0.150581,0.0877 1.5747462,0.14861 3.5362096,0.151226 l 3.2840909,0.0044 z"
   id="path4570"
   inkscape:connector-curvature="0" /><path
   style="opacity:1;fill:#127cc1;fill-opacity:0;fill-rule:evenodd;stroke:none;stroke-width:1.74242628;stroke-miterlimit:4;stroke-dasharray:none;stroke-opacity:1"
   d="M 15.808605,22.655538 7.2750468,22.617215 7.1877691,22.222171 C 6.9474129,21.134246 6.6260477,20.42201 6.1120555,19.838083 3.9987725,17.437269 0.61363585,17.261918 -1.5339767,19.44202 c -0.8158051,0.828146 -1.4247067,2.034538 -1.4247067,2.822713 0,0.324417 -0.055458,0.354765 -0.648305,0.354765 -0.9898832,0 -1.2245763,-0.315729 -1.2245763,-1.647401 0,-1.315517 0.1496454,-1.732098 0.8348291,-2.323989 l 0.533815,-0.461132 0.072034,-3.078231 C -3.2862332,10.636573 -3.2796856,10.6284 0.28701067,10.517803 2.5004813,10.449168 2.6373111,10.427728 3.1874001,10.063348 3.5485213,9.8241401 4.0999235,9.1772523 4.6597986,8.3359757 5.1520891,7.596253 5.6976909,6.9116357 5.872247,6.8146041 6.0796781,6.699298 6.9008009,6.6364144 8.2425878,6.6330778 l 2.0529662,-0.00511 V 5.9127026 c 0,-0.8324408 0.205939,-1.0135434 1.152542,-1.0135434 0.946604,0 1.152543,0.1811026 1.152543,1.0135434 v 0.7152701 h 0.636521 c 1.504253,0 1.524496,0.066753 1.524496,5.0270493 0,4.00415 0.0023,4.034481 0.320192,4.257155 0.176104,0.123348 0.435426,0.22427 0.576271,0.22427 0.240723,0 0.256079,-0.315736 0.256079,-5.265023 V 5.6064011 l 0.353622,-0.353621 c 0.495675,-0.4956762 1.137089,-0.4698189 1.674409,0.0675 l 0.421122,0.4211213 v 4.1220832 c 0,3.8831314 0.01461,4.1139604 0.252118,3.9819534 0.404809,-0.224997 4.742832,-3.9700979 6.152444,-5.3115267 2.907533,-2.7668954 8.374491,-7.4292718 9.10889,-7.76831913 0.694627,-0.32068661 0.781421,-0.33004561 1.248997,-0.13468008 0.898853,0.37556481 1.056187,1.20631941 0.453652,2.39536541 -0.350534,0.6917447 -0.360169,0.7925452 -0.360169,3.767705 0,2.9648419 0.0097,3.0672603 0.321651,3.3993275 0.312439,0.332575 0.314502,0.354841 0.07203,0.777316 -0.151538,0.26404 -0.249617,0.738002 -0.249617,1.206253 0,0.969504 -0.1722,1.427809 -0.65544,1.74444 -0.360411,0.23615 -0.404312,0.236088 -0.844936,-0.0012 -0.481578,-0.25934 -0.948777,-0.899263 -0.948777,-1.299533 0,-0.312731 0.102359,-0.2906 0.602545,0.130279 0.23542,0.198093 0.518027,0.36017 0.628016,0.36017 0.481807,0 0.682615,-1.400917 0.27757,-1.936434 -0.271076,-0.358394 -0.269334,-0.717593 0.0046,-0.944922 0.178125,-0.147831 0.216102,-0.6572878 0.216102,-2.898997 0,-1.4958062 -0.04862,-2.7159506 -0.108051,-2.7114318 -0.117859,0.00896 -7.527543,11.1029598 -7.527543,11.2704608 0,0.05647 2.495975,0.10268 5.546611,0.10268 h 5.54661 v 2.928277 2.928276 l -0.364825,0.342734 c -0.285108,0.267847 -0.56507,0.355485 -1.281281,0.401089 l -0.916458,0.05836 -0.162734,-0.758797 c -0.358886,-1.673426 -1.614385,-3.164978 -3.152434,-3.745141 -1.211018,-0.456803 -2.785448,-0.353825 -4.081181,0.266938 -1.484041,0.710979 -2.348881,1.828498 -2.724926,3.521064 -0.178376,0.802865 -0.197766,0.827317 -0.629341,0.793537 -0.244912,-0.01917 -4.285396,-0.0521 -8.978854,-0.07317 z m -2.985317,-12.20322 c 0.295143,-0.295142 0.353622,-0.493499 0.353622,-1.1994633 0,-1.3014579 -0.203146,-1.4298563 -2.460507,-1.5551694 C 9.7196933,7.6423548 8.5203285,7.6432511 8.0511492,7.6996764 7.2323036,7.7981549 7.1619895,7.8406116 6.2976726,8.7584506 5.3445061,9.7706411 5.1439359,10.355944 5.6493675,10.650331 c 0.150581,0.0877 1.5747462,0.14861 3.5362096,0.151226 l 3.2840909,0.0044 z"
   id="path4572"
   inkscape:connector-curvature="0" /><path
   style="opacity:1;fill:#127cc1;fill-opacity:0;fill-rule:evenodd;stroke:none;stroke-width:1.74242628;stroke-miterlimit:4;stroke-dasharray:none;stroke-opacity:1"
   d="M 15.808605,22.655538 7.2750468,22.617215 7.1877691,22.222171 C 6.9474129,21.134246 6.6260477,20.42201 6.1120555,19.838083 3.9987725,17.437269 0.61363585,17.261918 -1.5339767,19.44202 c -0.8158051,0.828146 -1.4247067,2.034538 -1.4247067,2.822713 0,0.324417 -0.055458,0.354765 -0.648305,0.354765 -0.9898832,0 -1.2245763,-0.315729 -1.2245763,-1.647401 0,-1.315517 0.1496454,-1.732098 0.8348291,-2.323989 l 0.533815,-0.461132 0.072034,-3.078231 C -3.2862332,10.636573 -3.2796856,10.6284 0.28701067,10.517803 2.5004813,10.449168 2.6373111,10.427728 3.1874001,10.063348 3.5485213,9.8241401 4.0999235,9.1772523 4.6597986,8.3359757 5.1520891,7.596253 5.6976909,6.9116357 5.872247,6.8146041 6.0796781,6.699298 6.9008009,6.6364144 8.2425878,6.6330778 l 2.0529662,-0.00511 V 5.9127026 c 0,-0.8324408 0.205939,-1.0135434 1.152542,-1.0135434 0.946604,0 1.152543,0.1811026 1.152543,1.0135434 v 0.7152701 h 0.636521 c 1.504253,0 1.524496,0.066753 1.524496,5.0270493 0,4.00415 0.0023,4.034481 0.320192,4.257155 0.176104,0.123348 0.435426,0.22427 0.576271,0.22427 0.240723,0 0.256079,-0.315736 0.256079,-5.265023 V 5.6064011 l 0.353622,-0.353621 c 0.495675,-0.4956762 1.137089,-0.4698189 1.674409,0.0675 l 0.421122,0.4211213 v 4.1220832 c 0,3.8831314 0.01461,4.1139604 0.252118,3.9819534 0.404809,-0.224997 4.742832,-3.9700979 6.152444,-5.3115267 2.907533,-2.7668954 8.374491,-7.4292718 9.10889,-7.76831913 0.694627,-0.32068661 0.781421,-0.33004561 1.248997,-0.13468008 0.898853,0.37556481 1.056187,1.20631941 0.453652,2.39536541 -0.350534,0.6917447 -0.360169,0.7925452 -0.360169,3.767705 0,2.9648419 0.0097,3.0672603 0.321651,3.3993275 0.312439,0.332575 0.314502,0.354841 0.07203,0.777316 -0.151538,0.26404 -0.249617,0.738002 -0.249617,1.206253 0,0.969504 -0.1722,1.427809 -0.65544,1.74444 -0.360411,0.23615 -0.404312,0.236088 -0.844936,-0.0012 -0.481578,-0.25934 -0.948777,-0.899263 -0.948777,-1.299533 0,-0.312731 0.102359,-0.2906 0.602545,0.130279 0.23542,0.198093 0.518027,0.36017 0.628016,0.36017 0.481807,0 0.682615,-1.400917 0.27757,-1.936434 -0.271076,-0.358394 -0.269334,-0.717593 0.0046,-0.944922 0.178125,-0.147831 0.216102,-0.6572878 0.216102,-2.898997 0,-1.4958062 -0.04862,-2.7159506 -0.108051,-2.7114318 -0.117859,0.00896 -7.527543,11.1029598 -7.527543,11.2704608 0,0.05647 2.495975,0.10268 5.546611,0.10268 h 5.54661 v 2.928277 2.928276 l -0.364825,0.342734 c -0.285108,0.267847 -0.56507,0.355485 -1.281281,0.401089 l -0.916458,0.05836 -0.162734,-0.758797 c -0.358886,-1.673426 -1.614385,-3.164978 -3.152434,-3.745141 -1.211018,-0.456803 -2.785448,-0.353825 -4.081181,0.266938 -1.484041,0.710979 -2.348881,1.828498 -2.724926,3.521064 -0.178376,0.802865 -0.197766,0.827317 -0.629341,0.793537 -0.244912,-0.01917 -4.285396,-0.0521 -8.978854,-0.07317 z m -2.985317,-12.20322 c 0.295143,-0.295142 0.353622,-0.493499 0.353622,-1.1994633 0,-1.3014579 -0.203146,-1.4298563 -2.460507,-1.5551694 C 9.7196933,7.6423548 8.5203285,7.6432511 8.0511492,7.6996764 7.2323036,7.7981549 7.1619895,7.8406116 6.2976726,8.7584506 5.3445061,9.7706411 5.1439359,10.355944 5.6493675,10.650331 c 0.150581,0.0877 1.5747462,0.14861 3.5362096,0.151226 l 3.2840909,0.0044 z"
   id="path4574"
   inkscape:connector-curvature="0" /><path
   style="opacity:1;fill:#127cc1;fill-opacity:0;fill-rule:evenodd;stroke:none;stroke-width:1.74242628;stroke-miterlimit:4;stroke-dasharray:none;stroke-opacity:1"
   d="M 15.808605,22.655538 7.2750468,22.617215 7.1877691,22.222171 C 6.9474129,21.134246 6.6260477,20.42201 6.1120555,19.838083 3.9987725,17.437269 0.61363585,17.261918 -1.5339767,19.44202 c -0.8158051,0.828146 -1.4247067,2.034538 -1.4247067,2.822713 0,0.324417 -0.055458,0.354765 -0.648305,0.354765 -0.9898832,0 -1.2245763,-0.315729 -1.2245763,-1.647401 0,-1.315517 0.1496454,-1.732098 0.8348291,-2.323989 l 0.533815,-0.461132 0.072034,-3.078231 C -3.2862332,10.636573 -3.2796856,10.6284 0.28701067,10.517803 2.5004813,10.449168 2.6373111,10.427728 3.1874001,10.063348 3.5485213,9.8241401 4.0999235,9.1772523 4.6597986,8.3359757 5.1520891,7.596253 5.6976909,6.9116357 5.872247,6.8146041 6.0796781,6.699298 6.9008009,6.6364144 8.2425878,6.6330778 l 2.0529662,-0.00511 V 5.9127026 c 0,-0.8324408 0.205939,-1.0135434 1.152542,-1.0135434 0.946604,0 1.152543,0.1811026 1.152543,1.0135434 v 0.7152701 h 0.636521 c 1.504253,0 1.524496,0.066753 1.524496,5.0270493 0,4.00415 0.0023,4.034481 0.320192,4.257155 0.176104,0.123348 0.435426,0.22427 0.576271,0.22427 0.240723,0 0.256079,-0.315736 0.256079,-5.265023 V 5.6064011 l 0.353622,-0.353621 c 0.495675,-0.4956762 1.137089,-0.4698189 1.674409,0.0675 l 0.421122,0.4211213 v 4.1220832 c 0,3.8831314 0.01461,4.1139604 0.252118,3.9819534 0.404809,-0.224997 4.742832,-3.9700979 6.152444,-5.3115267 2.907533,-2.7668954 8.374491,-7.4292718 9.10889,-7.76831913 0.694627,-0.32068661 0.781421,-0.33004561 1.248997,-0.13468008 0.898853,0.37556481 1.056187,1.20631941 0.453652,2.39536541 -0.350534,0.6917447 -0.360169,0.7925452 -0.360169,3.767705 0,2.9648419 0.0097,3.0672603 0.321651,3.3993275 0.312439,0.332575 0.314502,0.354841 0.07203,0.777316 -0.151538,0.26404 -0.249617,0.738002 -0.249617,1.206253 0,0.969504 -0.1722,1.427809 -0.65544,1.74444 -0.360411,0.23615 -0.404312,0.236088 -0.844936,-0.0012 -0.481578,-0.25934 -0.948777,-0.899263 -0.948777,-1.299533 0,-0.312731 0.102359,-0.2906 0.602545,0.130279 0.23542,0.198093 0.518027,0.36017 0.628016,0.36017 0.481807,0 0.682615,-1.400917 0.27757,-1.936434 -0.271076,-0.358394 -0.269334,-0.717593 0.0046,-0.944922 0.178125,-0.147831 0.216102,-0.6572878 0.216102,-2.898997 0,-1.4958062 -0.04862,-2.7159506 -0.108051,-2.7114318 -0.117859,0.00896 -7.527543,11.1029598 -7.527543,11.2704608 0,0.05647 2.495975,0.10268 5.546611,0.10268 h 5.54661 v 2.928277 2.928276 l -0.364825,0.342734 c -0.285108,0.267847 -0.56507,0.355485 -1.281281,0.401089 l -0.916458,0.05836 -0.162734,-0.758797 c -0.358886,-1.673426 -1.614385,-3.164978 -3.152434,-3.745141 -1.211018,-0.456803 -2.785448,-0.353825 -4.081181,0.266938 -1.484041,0.710979 -2.348881,1.828498 -2.724926,3.521064 -0.178376,0.802865 -0.197766,0.827317 -0.629341,0.793537 -0.244912,-0.01917 -4.285396,-0.0521 -8.978854,-0.07317 z m -2.985317,-12.20322 c 0.295143,-0.295142 0.353622,-0.493499 0.353622,-1.1994633 0,-1.3014579 -0.203146,-1.4298563 -2.460507,-1.5551694 C 9.7196933,7.6423548 8.5203285,7.6432511 8.0511492,7.6996764 7.2323036,7.7981549 7.1619895,7.8406116 6.2976726,8.7584506 5.3445061,9.7706411 5.1439359,10.355944 5.6493675,10.650331 c 0.150581,0.0877 1.5747462,0.14861 3.5362096,0.151226 l 3.2840909,0.0044 z"
   id="path4576"
   inkscape:connector-curvature="0" /><path
   style="opacity:1;fill:#fd0e35;fill-opacity:0;fill-rule:evenodd;stroke:none;stroke-width:1.74242628;stroke-miterlimit:4;stroke-dasharray:none;stroke-opacity:1"
   d="M 15.808605,22.655538 7.2750468,22.617215 7.1877691,22.222171 C 6.9474129,21.134246 6.6260477,20.42201 6.1120555,19.838083 3.9987725,17.437269 0.61363585,17.261918 -1.5339767,19.44202 c -0.8158051,0.828146 -1.4247067,2.034538 -1.4247067,2.822713 0,0.324417 -0.055458,0.354765 -0.648305,0.354765 -0.9898832,0 -1.2245763,-0.315729 -1.2245763,-1.647401 0,-1.315517 0.1496454,-1.732098 0.8348291,-2.323989 l 0.533815,-0.461132 0.072034,-3.078231 C -3.2862332,10.636573 -3.2796856,10.6284 0.28701067,10.517803 2.5004813,10.449168 2.6373111,10.427728 3.1874001,10.063348 3.5485213,9.8241401 4.0999235,9.1772523 4.6597986,8.3359757 5.1520891,7.596253 5.6976909,6.9116357 5.872247,6.8146041 6.0796781,6.699298 6.9008009,6.6364144 8.2425878,6.6330778 l 2.0529662,-0.00511 V 5.9127026 c 0,-0.8324408 0.205939,-1.0135434 1.152542,-1.0135434 0.946604,0 1.152543,0.1811026 1.152543,1.0135434 v 0.7152701 h 0.636521 c 1.504253,0 1.524496,0.066753 1.524496,5.0270493 0,4.00415 0.0023,4.034481 0.320192,4.257155 0.176104,0.123348 0.435426,0.22427 0.576271,0.22427 0.240723,0 0.256079,-0.315736 0.256079,-5.265023 V 5.6064011 l 0.353622,-0.353621 c 0.495675,-0.4956762 1.137089,-0.4698189 1.674409,0.0675 l 0.421122,0.4211213 v 4.1220832 c 0,3.8831314 0.01461,4.1139604 0.252118,3.9819534 0.404809,-0.224997 4.742832,-3.9700979 6.152444,-5.3115267 2.907533,-2.7668954 8.374491,-7.4292718 9.10889,-7.76831913 0.694627,-0.32068661 0.781421,-0.33004561 1.248997,-0.13468008 0.898853,0.37556481 1.056187,1.20631941 0.453652,2.39536541 -0.350534,0.6917447 -0.360169,0.7925452 -0.360169,3.767705 0,2.9648419 0.0097,3.0672603 0.321651,3.3993275 0.312439,0.332575 0.314502,0.354841 0.07203,0.777316 -0.151538,0.26404 -0.249617,0.738002 -0.249617,1.206253 0,0.969504 -0.1722,1.427809 -0.65544,1.74444 -0.360411,0.23615 -0.404312,0.236088 -0.844936,-0.0012 -0.481578,-0.25934 -0.948777,-0.899263 -0.948777,-1.299533 0,-0.312731 0.102359,-0.2906 0.602545,0.130279 0.23542,0.198093 0.518027,0.36017 0.628016,0.36017 0.481807,0 0.682615,-1.400917 0.27757,-1.936434 -0.271076,-0.358394 -0.269334,-0.717593 0.0046,-0.944922 0.178125,-0.147831 0.216102,-0.6572878 0.216102,-2.898997 0,-1.4958062 -0.04862,-2.7159506 -0.108051,-2.7114318 -0.117859,0.00896 -7.527543,11.1029598 -7.527543,11.2704608 0,0.05647 2.495975,0.10268 5.546611,0.10268 h 5.54661 v 2.928277 2.928276 l -0.364825,0.342734 c -0.285108,0.267847 -0.56507,0.355485 -1.281281,0.401089 l -0.916458,0.05836 -0.162734,-0.758797 c -0.358886,-1.673426 -1.614385,-3.164978 -3.152434,-3.745141 -1.211018,-0.456803 -2.785448,-0.353825 -4.081181,0.266938 -1.484041,0.710979 -2.348881,1.828498 -2.724926,3.521064 -0.178376,0.802865 -0.197766,0.827317 -0.629341,0.793537 -0.244912,-0.01917 -4.285396,-0.0521 -8.978854,-0.07317 z m -2.985317,-12.20322 c 0.295143,-0.295142 0.353622,-0.493499 0.353622,-1.1994633 0,-1.3014579 -0.203146,-1.4298563 -2.460507,-1.5551694 C 9.7196933,7.6423548 8.5203285,7.6432511 8.0511492,7.6996764 7.2323036,7.7981549 7.1619895,7.8406116 6.2976726,8.7584506 5.3445061,9.7706411 5.1439359,10.355944 5.6493675,10.650331 c 0.150581,0.0877 1.5747462,0.14861 3.5362096,0.151226 l 3.2840909,0.0044 z"
   id="path4578"
   inkscape:connector-curvature="0" /><path
   style="opacity:1;fill:#fd0e35;fill-opacity:0;fill-rule:evenodd;stroke:none;stroke-width:1.74242628;stroke-miterlimit:4;stroke-dasharray:none;stroke-opacity:1"
   d="m 29.85052,26.64608 c -1.261302,-0.309642 -2.295876,-1.101611 -2.882242,-2.206364 -0.247492,-0.466292 -0.314454,-0.830284 -0.308356,-1.67615 0.0094,-1.301152 0.38828,-2.208492 1.305497,-3.126247 1.467069,-1.467927 4.006761,-1.296321 5.571452,0.376461 0.769935,0.823122 1.027417,1.518183 1.018646,2.749786 -0.0174,2.442885 -2.436793,4.439345 -4.704997,3.882514 z m 1.289469,-2.019229 c 1.385355,-0.524897 1.700155,-2.296504 0.59201,-3.331667 -0.366101,-0.341989 -0.555735,-0.404499 -1.227105,-0.404499 -0.730333,0 -0.838991,0.0449 -1.353408,0.559322 -0.482871,0.482871 -0.559322,0.647339 -0.559322,1.203271 0,0.791656 0.448759,1.519859 1.155414,1.874895 0.581812,0.292312 0.834155,0.310195 1.392411,0.09868 z"
   id="path4588"
   inkscape:connector-curvature="0" /><g
   id="g1082"><g
     style="fill:#1bb1b5;fill-opacity:1;stroke:url(#linearGradient832);stroke-opacity:0"
     transform="matrix(0.91780913,0,0,1.2739991,1.1294411,-8.1504219)"
     id="g6">
	<path
   style="fill:#1bb1b5;fill-opacity:1;stroke:url(#linearGradient4648);stroke-opacity:0"
   inkscape:connector-curvature="0"
   id="path4"
   d="M 29.6,7.3 C 30,7 30.4,6.7 30.9,6.6 31.4,6.5 32,6.8 32.1,7.3 32.3,7.9 32,8.5 31.7,9 c -0.1,0.1 -0.1,0.3 -0.1,0.5 0,1.4 0,2.7 0,4.1 0,0.1 0,0.3 0,0.4 0.1,0.2 0.4,0.3 0.4,0.5 0.1,0.3 -0.1,0.5 -0.3,0.7 0,0.6 0.1,1.2 -0.2,1.8 -0.2,0.3 -0.6,0.5 -0.9,0.4 -0.5,-0.2 -0.9,-0.7 -1,-1.2 0,-0.1 0.1,-0.3 0.2,-0.3 0.1,0 0.2,0.2 0.3,0.2 0.1,0.2 0.3,0.4 0.6,0.4 0.2,0 0.3,-0.2 0.3,-0.4 0,-0.3 0,-0.5 0,-0.8 -0.1,-0.2 -0.3,-0.3 -0.3,-0.5 -0.1,-0.3 0.1,-0.5 0.3,-0.7 0,-1.4 0,-2.8 0,-4.2 -0.5,0.7 -0.9,1.4 -1.4,2.1 -0.9,1.4 -1.9,2.8 -2.8,4.2 -0.6,0.9 -1.2,1.7 -1.7,2.6 2.5,0 5,0 7.5,0 0.4,0 0.8,0 1.3,0 0,0.3 0,0.5 0,0.8 0,1.2 0,2.3 0,3.5 0,0.5 -0.4,0.9 -0.9,1 -0.4,0 -0.8,0 -1.3,0 -0.1,-1.1 -0.6,-2.1 -1.4,-2.8 -1,-0.9 -2.5,-1.2 -3.8,-0.7 -1.3,0.4 -2.3,1.4 -2.6,2.7 -0.1,0.3 -0.1,0.6 -0.2,0.9 -0.3,0.1 -0.6,0 -1,0 -4.3,0 -8.6,0 -12.9,0 -0.1,0 -0.3,0 -0.4,-0.1 C 9.3,23.2 9,22.3 8.3,21.7 7.5,20.9 6.4,20.4 5.3,20.4 c -0.8,0.1 -1.6,0.3 -2.2,0.7 -1,0.7 -1.6,1.8 -1.7,3 -0.3,0.1 -0.6,0.1 -1,0 -0.3,0 -0.5,-0.3 -0.5,-0.6 0,-0.4 0,-0.8 0,-1.1 0,-0.4 0,-0.8 0.2,-1.1 C 0.3,21.1 0.6,20.9 0.8,20.7 0.9,20.5 1,20.3 1,20.1 1,19 1,17.9 1,16.8 1,16.4 1,16.1 1.1,15.7 1.3,15 1.9,14.5 2.6,14.5 c 0.8,0 1.6,0 2.4,0 0.7,0 1.4,-0.3 1.8,-0.9 C 7.1,13.2 7.4,12.8 7.7,12.3 7.9,12 8,11.7 8.3,11.6 8.6,11.4 9,11.4 9.4,11.4 c 0.8,0 1.6,0 2.4,0 0,-0.3 0,-0.6 0,-0.9 0,-0.2 0.2,-0.4 0.4,-0.4 0.4,0 0.7,0 1.1,0 0.2,0 0.4,0.2 0.4,0.4 0,0.3 0,0.6 0,0.9 0.4,0 0.8,-0.1 1.2,0.1 0.3,0.2 0.5,0.5 0.5,0.9 0,1.9 0,3.9 0,5.8 0,0.2 0,0.4 0.2,0.5 0.2,0.2 0.4,0.2 0.6,0.2 0,-0.2 0,-0.4 0,-0.6 0,-2.4 0,-4.8 0,-7.1 0,-0.3 0.1,-0.7 0.3,-0.9 0.4,-0.4 1.2,-0.3 1.6,0.2 0.3,0.4 0.2,0.9 0.2,1.4 0,1.8 0,3.5 0,5.3 1.3,-1 2.5,-2.1 3.8,-3.2 2.6,-2.5 5.1,-4.6 7.5,-6.7 M 9.8,12.4 C 9.2,12.5 8.8,13 8.5,13.5 8.3,13.7 8,13.9 8,14.3 c 0,0.3 0.3,0.4 0.6,0.4 1.4,0 2.9,0 4.3,0 0.2,0 0.4,0 0.6,0 0.4,-0.1 0.6,-0.5 0.6,-0.9 0,-0.4 0.1,-0.8 -0.2,-1.1 -0.3,-0.4 -0.8,-0.3 -1.2,-0.3 -1,-0.1 -2,-0.1 -2.9,0 M 28,20.9 c 0.8,0.1 1.6,0.4 2.2,1 0.6,0.6 0.9,1.4 0.9,2.3 0,0.9 -0.4,1.7 -1,2.3 -0.6,0.6 -1.6,1 -2.4,0.9 -1.1,-0.1 -2.1,-0.7 -2.6,-1.6 -0.7,-1.1 -0.5,-2.7 0.3,-3.7 0.5,-0.8 1.6,-1.3 2.6,-1.2 m -0.6,1.9 c -0.4,0.1 -0.7,0.4 -0.9,0.7 -0.4,0.7 -0.1,1.6 0.6,2 0.5,0.3 1.1,0.3 1.5,0 0.6,-0.3 0.8,-1.1 0.6,-1.7 -0.1,-0.4 -0.4,-0.7 -0.7,-0.9 -0.3,-0.2 -0.7,-0.2 -1.1,-0.1 M 4.8,21 c 0.8,-0.2 1.8,0 2.5,0.5 0.8,0.5 1.3,1.3 1.5,2.3 0,0.4 0,0.9 -0.1,1.3 C 8.4,26.1 7.6,27 6.6,27.3 5.8,27.6 4.8,27.5 4,27.1 3.1,26.6 2.5,25.8 2.3,24.8 2.2,24.4 2.3,24 2.3,23.7 2.5,22.4 3.5,21.3 4.8,21 m 0.3,1.8 C 4.5,22.9 4,23.5 4,24.2 c 0,0.5 0.3,1 0.7,1.3 0.4,0.2 0.9,0.3 1.3,0.1 0.5,-0.1 0.8,-0.5 0.9,-1 C 7.1,24 6.8,23.2 6.2,22.9 5.9,22.7 5.5,22.7 5.1,22.8 Z"
   class="st0" />
</g><text
     transform="scale(0.64010519,1.5622432)"
     id="text822"
     y="21.456373"
     x="0.028241664"
     style="font-style:normal;font-variant:normal;font-weight:bold;font-stretch:normal;font-size:5.19894457px;line-height:1.25;font-family:sans-serif;-inkscape-font-specification:'sans-serif, Bold';font-variant-ligatures:normal;font-variant-caps:normal;font-variant-numeric:normal;font-feature-settings:normal;text-align:start;letter-spacing:0px;word-spacing:0px;writing-mode:lr-tb;text-anchor:start;fill:#000000;fill-opacity:1;stroke:none;stroke-width:0.12997322"
     xml:space="preserve"><tspan
       style="font-style:normal;font-variant:normal;font-weight:bold;font-stretch:normal;font-size:5.19894457px;font-family:sans-serif;-inkscape-font-specification:'sans-serif, Bold';font-variant-ligatures:normal;font-variant-caps:normal;font-variant-numeric:normal;font-feature-settings:normal;text-align:start;writing-mode:lr-tb;text-anchor:start;fill:#000000;fill-opacity:1;stroke-width:0.12997322"
       y="21.456373"
       x="0.028241664"
       id="tspan4626"
       sodipodi:role="line">Šlep Služba Srbije</tspan><tspan
       style="font-style:normal;font-variant:normal;font-weight:bold;font-stretch:normal;font-size:5.19894457px;font-family:sans-serif;-inkscape-font-specification:'sans-serif, Bold';font-variant-ligatures:normal;font-variant-caps:normal;font-variant-numeric:normal;font-feature-settings:normal;text-align:start;writing-mode:lr-tb;text-anchor:start;fill:#000000;fill-opacity:1;stroke-width:0.12997322"
       y="27.955053"
       x="0.028241664"
       id="tspan4628"
       sodipodi:role="line" /></text>
<path
     inkscape:connector-curvature="0"
     id="path4590"
     d="m 26.178639,26.598497 c -0.913718,-0.311365 -1.663189,-1.107741 -2.087967,-2.218642 -0.179289,-0.468886 -0.227798,-0.834904 -0.223381,-1.685477 0.0068,-1.308392 0.28128,-2.220781 0.945734,-3.143643 1.062781,-1.476095 2.902597,-1.303534 4.036097,0.378556 0.55776,0.827702 0.744286,1.526631 0.737932,2.765087 -0.0126,2.456479 -1.765272,4.464048 -3.408415,3.904119 z m 0.934123,-2.030465 c 1.003585,-0.527818 1.231634,-2.309283 0.428867,-3.350206 -0.265213,-0.343892 -0.402589,-0.40675 -0.888945,-0.40675 -0.529072,0 -0.607786,0.04515 -0.980442,0.562434 -0.349804,0.485558 -0.405187,0.650941 -0.405187,1.209967 0,0.796061 0.325092,1.528316 0.83701,1.885327 0.421479,0.293939 0.604283,0.311922 1.008697,0.09923 z"
     style="opacity:1;fill:#fd0e35;fill-opacity:1;fill-rule:evenodd;stroke:none;stroke-width:1.48715413;stroke-miterlimit:4;stroke-dasharray:none;stroke-opacity:1" /><path
     inkscape:connector-curvature="0"
     id="path4600"
     d="M 5.1645862,26.516446 C 4.5634739,26.220525 3.9134796,25.401959 3.5834228,24.525217 c -0.398519,-1.0586 -0.4006972,-2.600051 -0.00514,-3.641708 1.175859,-3.096541 4.2004475,-2.984766 5.3184143,0.196544 0.6974077,1.984558 -0.1397112,4.724764 -1.663574,5.445503 -0.5853874,0.27687 -1.4957546,0.272861 -2.0685308,-0.0092 z M 6.820272,24.446964 C 7.678933,23.992738 7.7695446,21.786378 6.9597841,21.049892 6.6300757,20.75002 5.8390266,20.740137 5.434051,21.030832 c -0.6596742,0.473519 -0.8472463,1.830381 -0.3866014,2.796602 0.3911196,0.82039 0.9945117,1.031251 1.7728224,0.61953 z"
     style="opacity:1;fill:#fd0e35;fill-opacity:1;fill-rule:evenodd;stroke:none;stroke-width:1.48715413;stroke-miterlimit:4;stroke-dasharray:none;stroke-opacity:1" /></g></svg>